%TF.GenerationSoftware,KiCad,Pcbnew,8.0.9*%
%TF.CreationDate,2025-03-09T10:14:33-06:00*%
%TF.ProjectId,lt-option-clone,6c742d6f-7074-4696-9f6e-2d636c6f6e65,rev?*%
%TF.SameCoordinates,Original*%
%TF.FileFunction,Soldermask,Top*%
%TF.FilePolarity,Negative*%
%FSLAX46Y46*%
G04 Gerber Fmt 4.6, Leading zero omitted, Abs format (unit mm)*
G04 Created by KiCad (PCBNEW 8.0.9) date 2025-03-09 10:14:33*
%MOMM*%
%LPD*%
G01*
G04 APERTURE LIST*
G04 Aperture macros list*
%AMFreePoly0*
4,1,20,-1.000000,0.000000,-0.984315,0.176420,-0.928653,0.370950,-0.834972,0.550293,-0.707107,0.707107,-0.550293,0.834972,-0.370950,0.928653,-0.176420,0.984315,0.000000,1.000000,0.176420,0.984315,0.370950,0.928653,0.550293,0.834972,0.707107,0.707107,0.834972,0.550293,0.928653,0.370950,0.984315,0.176420,1.000000,0.000000,1.000000,-1.000000,-1.000000,-1.000000,-1.000000,0.000000,
-1.000000,0.000000,$1*%
%AMFreePoly1*
4,1,20,-1.000000,1.000000,1.000000,1.000000,1.000000,0.000000,0.984315,-0.176420,0.928653,-0.370950,0.834972,-0.550293,0.707107,-0.707107,0.550293,-0.834972,0.370950,-0.928653,0.176420,-0.984315,0.000000,-1.000000,-0.176420,-0.984315,-0.370950,-0.928653,-0.550293,-0.834972,-0.707107,-0.707107,-0.834972,-0.550293,-0.928653,-0.370950,-0.984315,-0.176420,-1.000000,0.000000,-1.000000,1.000000,
-1.000000,1.000000,$1*%
G04 Aperture macros list end*
%ADD10C,0.100000*%
%ADD11R,1.600000X1.600000*%
%ADD12O,1.600000X1.600000*%
%ADD13C,1.600000*%
%ADD14C,4.400000*%
%ADD15C,4.000000*%
%ADD16C,1.700000*%
%ADD17FreePoly0,0.000000*%
%ADD18FreePoly1,0.000000*%
%ADD19FreePoly0,90.000000*%
%ADD20FreePoly1,90.000000*%
%ADD21R,1.700000X1.700000*%
%ADD22O,1.700000X1.700000*%
G04 APERTURE END LIST*
%TO.C,JP3*%
D10*
X42291000Y-97658000D02*
X43815000Y-97658000D01*
X43815000Y-98420000D01*
X42291000Y-98420000D01*
X42291000Y-97658000D01*
G36*
X42291000Y-97658000D02*
G01*
X43815000Y-97658000D01*
X43815000Y-98420000D01*
X42291000Y-98420000D01*
X42291000Y-97658000D01*
G37*
%TO.C,JP4*%
X53081000Y-81026000D02*
X53843000Y-81026000D01*
X53843000Y-79502000D01*
X53081000Y-79502000D01*
X53081000Y-81026000D01*
G36*
X53081000Y-81026000D02*
G01*
X53843000Y-81026000D01*
X53843000Y-79502000D01*
X53081000Y-79502000D01*
X53081000Y-81026000D01*
G37*
%TO.C,JP1*%
X110993000Y-55626000D02*
X111755000Y-55626000D01*
X111755000Y-54102000D01*
X110993000Y-54102000D01*
X110993000Y-55626000D01*
G36*
X110993000Y-55626000D02*
G01*
X111755000Y-55626000D01*
X111755000Y-54102000D01*
X110993000Y-54102000D01*
X110993000Y-55626000D01*
G37*
%TO.C,JP2*%
X118867000Y-55626000D02*
X119629000Y-55626000D01*
X119629000Y-54102000D01*
X118867000Y-54102000D01*
X118867000Y-55626000D01*
G36*
X118867000Y-55626000D02*
G01*
X119629000Y-55626000D01*
X119629000Y-54102000D01*
X118867000Y-54102000D01*
X118867000Y-55626000D01*
G37*
%TD*%
D11*
%TO.C,U4*%
X104840000Y-74040000D03*
D12*
X107380000Y-74040000D03*
X109920000Y-74040000D03*
X112460000Y-74040000D03*
X115000000Y-74040000D03*
X117540000Y-74040000D03*
X120080000Y-74040000D03*
X122620000Y-74040000D03*
X125160000Y-74040000D03*
X127700000Y-74040000D03*
X130240000Y-74040000D03*
X132780000Y-74040000D03*
X135320000Y-74040000D03*
X137860000Y-74040000D03*
X137860600Y-66412200D03*
X137860000Y-58800000D03*
X135320600Y-66412200D03*
X135320000Y-58800000D03*
X132780600Y-66412200D03*
X132780000Y-58800000D03*
X130240600Y-66412200D03*
X130240000Y-58800000D03*
X127700600Y-66412200D03*
X127700000Y-58800000D03*
X125160600Y-66412200D03*
X125160000Y-58800000D03*
X122620600Y-66412200D03*
X122620000Y-58800000D03*
X120080600Y-66412200D03*
X120080000Y-58800000D03*
X117540600Y-66412200D03*
X117540000Y-58800000D03*
X115000600Y-66412200D03*
X115000000Y-58800000D03*
X112460600Y-66412200D03*
X112460000Y-58800000D03*
X109920600Y-66412200D03*
X109920000Y-58800000D03*
X107380600Y-66412200D03*
X107380000Y-58800000D03*
X104840600Y-66412200D03*
X104840000Y-58800000D03*
%TD*%
D11*
%TO.C,U16*%
X158500000Y-66400000D03*
D12*
X161040000Y-66400000D03*
X163580000Y-66400000D03*
X166120000Y-66400000D03*
X168660000Y-66400000D03*
X171200000Y-66400000D03*
X173740000Y-66400000D03*
X176280000Y-66400000D03*
X176280000Y-58780000D03*
X173740000Y-58780000D03*
X171200000Y-58780000D03*
X168660000Y-58780000D03*
X166120000Y-58780000D03*
X163580000Y-58780000D03*
X161040000Y-58780000D03*
X158500000Y-58780000D03*
%TD*%
D13*
%TO.C,C17*%
X209300000Y-60300000D03*
X209300000Y-65300000D03*
%TD*%
%TO.C,C2*%
X99700000Y-65000000D03*
X99700000Y-70000000D03*
%TD*%
%TO.C,C8*%
X153200000Y-75300000D03*
X153200000Y-80300000D03*
%TD*%
%TO.C,R2*%
X59055000Y-80300000D03*
D12*
X66675000Y-80300000D03*
%TD*%
D11*
%TO.C,U17*%
X133000000Y-112100000D03*
D13*
X140620000Y-112100000D03*
X148240000Y-112100000D03*
X140620000Y-104480000D03*
X148240000Y-104480000D03*
X133000000Y-104480000D03*
%TD*%
D14*
%TO.C,REF\u002A\u002A*%
X38700000Y-99700000D03*
%TD*%
D13*
%TO.C,C1*%
X39900000Y-80300000D03*
X39900000Y-85300000D03*
%TD*%
%TO.C,C9*%
X153200000Y-60200000D03*
X153200000Y-65200000D03*
%TD*%
D11*
%TO.C,U15*%
X186500000Y-81700000D03*
D12*
X189040000Y-81700000D03*
X191580000Y-81700000D03*
X194120000Y-81700000D03*
X196660000Y-81700000D03*
X199200000Y-81700000D03*
X201740000Y-81700000D03*
X201740000Y-74080000D03*
X199200000Y-74080000D03*
X196660000Y-74080000D03*
X194120000Y-74080000D03*
X191580000Y-74080000D03*
X189040000Y-74080000D03*
X186500000Y-74080000D03*
%TD*%
D13*
%TO.C,C4*%
X143100000Y-75500000D03*
X143100000Y-80500000D03*
%TD*%
D11*
%TO.C,U12*%
X186500000Y-96900000D03*
D12*
X189040000Y-96900000D03*
X191580000Y-96900000D03*
X194120000Y-96900000D03*
X196660000Y-96900000D03*
X199200000Y-96900000D03*
X201740000Y-96900000D03*
X201740000Y-89280000D03*
X199200000Y-89280000D03*
X196660000Y-89280000D03*
X194120000Y-89280000D03*
X191580000Y-89280000D03*
X189040000Y-89280000D03*
X186500000Y-89280000D03*
%TD*%
D15*
%TO.C,REF\u002A\u002A*%
X39600000Y-92000000D03*
%TD*%
D13*
%TO.C,C14*%
X209400000Y-106000000D03*
X209400000Y-111000000D03*
%TD*%
D16*
%TO.C,JP3*%
X43053000Y-96769000D03*
D17*
X43053000Y-96769000D03*
D16*
X43053000Y-99309000D03*
D18*
X43053000Y-99309000D03*
%TD*%
D13*
%TO.C,C3*%
X114000000Y-105800000D03*
X114000000Y-110800000D03*
%TD*%
D11*
%TO.C,U7*%
X214400000Y-96900000D03*
D12*
X216940000Y-96900000D03*
X219480000Y-96900000D03*
X222020000Y-96900000D03*
X224560000Y-96900000D03*
X227100000Y-96900000D03*
X229640000Y-96900000D03*
X232180000Y-96900000D03*
X234720000Y-96900000D03*
X237260000Y-96900000D03*
X237260000Y-89280000D03*
X234720000Y-89280000D03*
X232180000Y-89280000D03*
X229640000Y-89280000D03*
X227100000Y-89280000D03*
X224560000Y-89280000D03*
X222020000Y-89280000D03*
X219480000Y-89280000D03*
X216940000Y-89280000D03*
X214400000Y-89280000D03*
%TD*%
D13*
%TO.C,C10*%
X181200000Y-105900000D03*
X181200000Y-110900000D03*
%TD*%
%TO.C,C12*%
X181300000Y-75300000D03*
X181300000Y-80300000D03*
%TD*%
D11*
%TO.C,U14*%
X160800000Y-112100000D03*
D12*
X163340000Y-112100000D03*
X165880000Y-112100000D03*
X168420000Y-112100000D03*
X170960000Y-112100000D03*
X173500000Y-112100000D03*
X176040000Y-112100000D03*
X176040000Y-104480000D03*
X173500000Y-104480000D03*
X170960000Y-104480000D03*
X168420000Y-104480000D03*
X165880000Y-104480000D03*
X163340000Y-104480000D03*
X160800000Y-104480000D03*
%TD*%
D16*
%TO.C,JP4*%
X52192000Y-80264000D03*
D19*
X52192000Y-80264000D03*
D16*
X54732000Y-80264000D03*
D20*
X54732000Y-80264000D03*
%TD*%
D11*
%TO.C,U13*%
X161000000Y-96900000D03*
D12*
X163540000Y-96900000D03*
X166080000Y-96900000D03*
X168620000Y-96900000D03*
X171160000Y-96900000D03*
X173700000Y-96900000D03*
X176240000Y-96900000D03*
X176240000Y-89280000D03*
X173700000Y-89280000D03*
X171160000Y-89280000D03*
X168620000Y-89280000D03*
X166080000Y-89280000D03*
X163540000Y-89280000D03*
X161000000Y-89280000D03*
%TD*%
D13*
%TO.C,C13*%
X181300000Y-60100000D03*
X181300000Y-65100000D03*
%TD*%
%TO.C,C7*%
X154600000Y-90700000D03*
X154600000Y-95700000D03*
%TD*%
D11*
%TO.C,U18*%
X117600000Y-112100000D03*
D12*
X120140000Y-112100000D03*
X122680000Y-112100000D03*
X125220000Y-112100000D03*
X125220000Y-104480000D03*
X122680000Y-104480000D03*
X120140000Y-104480000D03*
X117600000Y-104480000D03*
%TD*%
D11*
%TO.C,U8*%
X214300000Y-112200000D03*
D12*
X216840000Y-112200000D03*
X219380000Y-112200000D03*
X221920000Y-112200000D03*
X224460000Y-112200000D03*
X227000000Y-112200000D03*
X229540000Y-112200000D03*
X232080000Y-112200000D03*
X234620000Y-112200000D03*
X237160000Y-112200000D03*
X237160000Y-104580000D03*
X234620000Y-104580000D03*
X232080000Y-104580000D03*
X229540000Y-104580000D03*
X227000000Y-104580000D03*
X224460000Y-104580000D03*
X221920000Y-104580000D03*
X219380000Y-104580000D03*
X216840000Y-104580000D03*
X214300000Y-104580000D03*
%TD*%
D11*
%TO.C,C18*%
X243582380Y-70700000D03*
D13*
X241082380Y-70700000D03*
%TD*%
D11*
%TO.C,U1*%
X46500000Y-99400000D03*
D12*
X49040000Y-99400000D03*
X51580000Y-99400000D03*
X54120000Y-99400000D03*
X56660000Y-99400000D03*
X59200000Y-99400000D03*
X61740000Y-99400000D03*
X64280000Y-99400000D03*
X66820000Y-99400000D03*
X69360000Y-99400000D03*
X71900000Y-99400000D03*
X74440000Y-99400000D03*
X76980000Y-99400000D03*
X79520000Y-99400000D03*
X82060000Y-99400000D03*
X84600000Y-99400000D03*
X87140000Y-99400000D03*
X89680000Y-99400000D03*
X92220000Y-99400000D03*
X94760000Y-99400000D03*
X94760000Y-84160000D03*
X92220000Y-84160000D03*
X89680000Y-84160000D03*
X87140000Y-84160000D03*
X84600000Y-84160000D03*
X82060000Y-84160000D03*
X79520000Y-84160000D03*
X76980000Y-84160000D03*
X74440000Y-84160000D03*
X71900000Y-84160000D03*
X69360000Y-84160000D03*
X66820000Y-84160000D03*
X64280000Y-84160000D03*
X61740000Y-84160000D03*
X59200000Y-84160000D03*
X56660000Y-84160000D03*
X54120000Y-84160000D03*
X51580000Y-84160000D03*
X49040000Y-84160000D03*
X46500000Y-84160000D03*
%TD*%
D13*
%TO.C,R1*%
X73100000Y-80400000D03*
D12*
X80720000Y-80400000D03*
%TD*%
D13*
%TO.C,R3*%
X39878000Y-76962000D03*
D12*
X39878000Y-69342000D03*
%TD*%
D13*
%TO.C,C11*%
X181300000Y-90700000D03*
X181300000Y-95700000D03*
%TD*%
D15*
%TO.C,REF\u002A\u002A*%
X250200000Y-114900000D03*
%TD*%
D13*
%TO.C,C16*%
X209400000Y-75500000D03*
X209400000Y-80500000D03*
%TD*%
D11*
%TO.C,U2*%
X46400000Y-76400000D03*
D12*
X48940000Y-76400000D03*
X51480000Y-76400000D03*
X54020000Y-76400000D03*
X56560000Y-76400000D03*
X59100000Y-76400000D03*
X61640000Y-76400000D03*
X64180000Y-76400000D03*
X66720000Y-76400000D03*
X69260000Y-76400000D03*
X71800000Y-76400000D03*
X74340000Y-76400000D03*
X76880000Y-76400000D03*
X79420000Y-76400000D03*
X81960000Y-76400000D03*
X84500000Y-76400000D03*
X87040000Y-76400000D03*
X89580000Y-76400000D03*
X92120000Y-76400000D03*
X94660000Y-76400000D03*
X94660000Y-61160000D03*
X92120000Y-61160000D03*
X89580000Y-61160000D03*
X87040000Y-61160000D03*
X84500000Y-61160000D03*
X81960000Y-61160000D03*
X79420000Y-61160000D03*
X76880000Y-61160000D03*
X74340000Y-61160000D03*
X71800000Y-61160000D03*
X69260000Y-61160000D03*
X66720000Y-61160000D03*
X64180000Y-61160000D03*
X61640000Y-61160000D03*
X59100000Y-61160000D03*
X56560000Y-61160000D03*
X54020000Y-61160000D03*
X51480000Y-61160000D03*
X48940000Y-61160000D03*
X46400000Y-61160000D03*
%TD*%
D11*
%TO.C,U10*%
X186400000Y-112100000D03*
D12*
X188940000Y-112100000D03*
X191480000Y-112100000D03*
X194020000Y-112100000D03*
X196560000Y-112100000D03*
X199100000Y-112100000D03*
X201640000Y-112100000D03*
X204180000Y-112100000D03*
X204180000Y-104480000D03*
X201640000Y-104480000D03*
X199100000Y-104480000D03*
X196560000Y-104480000D03*
X194020000Y-104480000D03*
X191480000Y-104480000D03*
X188940000Y-104480000D03*
X186400000Y-104480000D03*
%TD*%
D11*
%TO.C,U3*%
X105100000Y-96900000D03*
D12*
X107640000Y-96900000D03*
X110180000Y-96900000D03*
X112720000Y-96900000D03*
X115260000Y-96900000D03*
X117800000Y-96900000D03*
X120340000Y-96900000D03*
X122880000Y-96900000D03*
X125420000Y-96900000D03*
X127960000Y-96900000D03*
X130500000Y-96900000D03*
X133040000Y-96900000D03*
X135580000Y-96900000D03*
X138120000Y-96900000D03*
X138120000Y-81660000D03*
X135580000Y-81660000D03*
X133040000Y-81660000D03*
X130500000Y-81660000D03*
X127960000Y-81660000D03*
X125420000Y-81660000D03*
X122880000Y-81660000D03*
X120340000Y-81660000D03*
X117800000Y-81660000D03*
X115260000Y-81660000D03*
X112720000Y-81660000D03*
X110180000Y-81660000D03*
X107640000Y-81660000D03*
X105100000Y-81660000D03*
%TD*%
D11*
%TO.C,U6*%
X214500000Y-66500000D03*
D12*
X217040000Y-66500000D03*
X219580000Y-66500000D03*
X222120000Y-66500000D03*
X224660000Y-66500000D03*
X227200000Y-66500000D03*
X229740000Y-66500000D03*
X232280000Y-66500000D03*
X234820000Y-66500000D03*
X237360000Y-66500000D03*
X237360000Y-58880000D03*
X234820000Y-58880000D03*
X232280000Y-58880000D03*
X229740000Y-58880000D03*
X227200000Y-58880000D03*
X224660000Y-58880000D03*
X222120000Y-58880000D03*
X219580000Y-58880000D03*
X217040000Y-58880000D03*
X214500000Y-58880000D03*
%TD*%
D16*
%TO.C,JP1*%
X110104000Y-54864000D03*
D19*
X110104000Y-54864000D03*
D16*
X112644000Y-54864000D03*
D20*
X112644000Y-54864000D03*
%TD*%
D13*
%TO.C,C6*%
X154700000Y-105800000D03*
X154700000Y-110800000D03*
%TD*%
D15*
%TO.C,REF\u002A\u002A*%
X250200000Y-59800000D03*
%TD*%
D13*
%TO.C,C5*%
X143100000Y-60100000D03*
X143100000Y-65100000D03*
%TD*%
D15*
%TO.C,REF\u002A\u002A*%
X144900000Y-92200000D03*
%TD*%
D11*
%TO.C,U5*%
X214400000Y-81700000D03*
D12*
X216940000Y-81700000D03*
X219480000Y-81700000D03*
X222020000Y-81700000D03*
X224560000Y-81700000D03*
X227100000Y-81700000D03*
X229640000Y-81700000D03*
X232180000Y-81700000D03*
X234720000Y-81700000D03*
X237260000Y-81700000D03*
X237260000Y-74080000D03*
X234720000Y-74080000D03*
X232180000Y-74080000D03*
X229640000Y-74080000D03*
X227100000Y-74080000D03*
X224560000Y-74080000D03*
X222020000Y-74080000D03*
X219480000Y-74080000D03*
X216940000Y-74080000D03*
X214400000Y-74080000D03*
%TD*%
D16*
%TO.C,JP2*%
X117978000Y-54864000D03*
D19*
X117978000Y-54864000D03*
D16*
X120518000Y-54864000D03*
D20*
X120518000Y-54864000D03*
%TD*%
D11*
%TO.C,U11*%
X186500000Y-66400000D03*
D12*
X189040000Y-66400000D03*
X191580000Y-66400000D03*
X194120000Y-66400000D03*
X196660000Y-66400000D03*
X199200000Y-66400000D03*
X201740000Y-66400000D03*
X201740000Y-58780000D03*
X199200000Y-58780000D03*
X196660000Y-58780000D03*
X194120000Y-58780000D03*
X191580000Y-58780000D03*
X189040000Y-58780000D03*
X186500000Y-58780000D03*
%TD*%
D13*
%TO.C,C15*%
X209400000Y-90700000D03*
X209400000Y-95700000D03*
%TD*%
D11*
%TO.C,U9*%
X158500000Y-81700000D03*
D12*
X161040000Y-81700000D03*
X163580000Y-81700000D03*
X166120000Y-81700000D03*
X168660000Y-81700000D03*
X171200000Y-81700000D03*
X173740000Y-81700000D03*
X176280000Y-81700000D03*
X176280000Y-74080000D03*
X173740000Y-74080000D03*
X171200000Y-74080000D03*
X168660000Y-74080000D03*
X166120000Y-74080000D03*
X163580000Y-74080000D03*
X161040000Y-74080000D03*
X158500000Y-74080000D03*
%TD*%
D21*
%TO.C,P1*%
X252800000Y-103300000D03*
D22*
X250260000Y-103300000D03*
X252800000Y-100760000D03*
X250260000Y-100760000D03*
X252800000Y-98220000D03*
X250260000Y-98220000D03*
X252800000Y-95680000D03*
X250260000Y-95680000D03*
X252800000Y-93140000D03*
X250260000Y-93140000D03*
X252800000Y-90600000D03*
X250260000Y-90600000D03*
X252800000Y-88060000D03*
X250260000Y-88060000D03*
X252800000Y-85520000D03*
X250260000Y-85520000D03*
X252800000Y-82980000D03*
X250260000Y-82980000D03*
X252800000Y-80440000D03*
X250260000Y-80440000D03*
X252800000Y-77900000D03*
X250260000Y-77900000D03*
X252800000Y-75360000D03*
X250260000Y-75360000D03*
X252800000Y-72820000D03*
X250260000Y-72820000D03*
%TD*%
M02*
