M48
; DRILL file {KiCad 8.0.9} date 2025-03-09T10:14:19-0600
; FORMAT={-:-/ absolute / inch / decimal}
; #@! TF.CreationDate,2025-03-09T10:14:19-06:00
; #@! TF.GenerationSoftware,Kicad,Pcbnew,8.0.9
; #@! TF.FileFunction,Plated,1,2,PTH
FMAT,2
INCH
; #@! TA.AperFunction,Plated,PTH,ViaDrill
T1C0.0118
; #@! TA.AperFunction,Plated,PTH,ComponentDrill
T2C0.0315
; #@! TA.AperFunction,Plated,PTH,ComponentDrill
T3C0.0394
; #@! TA.AperFunction,Plated,PTH,ComponentDrill
T4C0.0866
%
G90
G05
T1
X1.41Y-2.945
X1.41Y-2.9883
X1.4533Y-2.945
X1.4533Y-2.9883
X1.4567Y-2.5039
X1.4567Y-2.5433
X1.5039Y-2.5039
X1.5039Y-2.5433
X1.82Y-2.63
X1.82Y-2.68
X1.855Y-2.6
X1.855Y-2.65
X1.9291Y-3.1575
X1.9331Y-3.5157
X1.98Y-3.11
X2.0079Y-2.2598
X2.0268Y-2.8543
X2.0276Y-2.5118
X2.055Y-2.2598
X2.0984Y-2.2598
X2.126Y-2.5591
X2.1268Y-2.8512
X2.1307Y-3.5622
X2.1378Y-2.2598
X2.1811Y-2.3071
X2.2795Y-3.6012
X2.3819Y-3.7126
X2.4307Y-3.6126
X2.4803Y-3.7598
X2.5039Y-2.2441
X2.5039Y-2.2874
X2.5551Y-2.2441
X2.5551Y-2.2874
X2.5551Y-2.6339
X2.5787Y-2.6614
X2.6024Y-2.6339
X2.7283Y-3.563
X2.8819Y-3.6929
X2.9173Y-2.2441
X2.9173Y-2.2953
X2.9606Y-2.2441
X2.9606Y-2.2953
X3.0787Y-2.311
X3.0787Y-2.7559
X3.185Y-3.4606
X3.2126Y-2.8307
X3.2795Y-2.311
X3.378Y-2.311
X3.4409Y-3.2087
X3.5276Y-2.6102
X3.7283Y-2.8386
X3.7283Y-3.1654
X3.7677Y-2.0354
X3.8071Y-2.0118
X3.8071Y-2.0472
X3.8386Y-2.1914
X3.86Y-2.1102
X3.9291Y-2.9606
X3.9916Y-2.0866
X4.0315Y-3.2126
X4.1102Y-2.4606
X4.1535Y-2.4606
X4.28Y-2.46
X4.325Y-2.46
X4.3307Y-2.7874
X4.6339Y-3.9646
X4.8583Y-4.563
X4.8819Y-2.7638
X4.8976Y-4.563
X4.9252Y-4.2992
X4.9488Y-4.3268
X4.9646Y-4.563
X5.0039Y-4.563
X5.0591Y-4.563
X5.0984Y-4.563
X5.2323Y-2.1654
X5.2362Y-3.5157
X5.3189Y-3.4134
X5.3346Y-2.2126
X5.4331Y-3.9134
X5.437Y-3.4803
X5.5827Y-3.815
X5.6339Y-3.9685
X5.7362Y-3.9685
X5.7874Y-3.0669
X5.8346Y-2.5945
X5.8346Y-2.7087
X5.8386Y-2.9685
X5.8858Y-2.8583
X5.8898Y-3.9567
X6.1614Y-3.9449
X6.1614Y-3.9921
X6.2047Y-3.9449
X6.2047Y-3.9921
X6.2323Y-2.4724
X6.2874Y-2.7638
X6.315Y-2.3858
X6.3386Y-2.4134
X6.3701Y-2.3898
X6.4094Y-4.0039
X6.437Y-3.6654
X6.437Y-3.9173
X6.4882Y-4.2677
X6.5402Y-2.4677
X6.5512Y-3.3386
X6.6063Y-3.9961
X6.7402Y-2.7677
X6.7913Y-3.3701
X6.8386Y-3.063
X6.8898Y-3.6654
X6.937Y-4.0197
X7.3366Y-4.2657
X7.3819Y-2.7677
X7.4409Y-3.0197
X7.4843Y-3.9528
X7.4882Y-2.7677
X7.4921Y-2.4646
X7.5394Y-3.6654
X7.6417Y-3.0157
X7.7402Y-3.9488
X7.7913Y-2.4646
X7.8386Y-2.7598
X7.8465Y-3.063
X7.8937Y-3.6693
X7.895Y-2.245
X7.937Y-2.7756
X7.9409Y-4.2677
X7.9921Y-3.6693
X8.0386Y-3.8197
X8.045Y-2.245
X8.135Y-2.2598
X8.3386Y-3.3701
X8.3858Y-2.8189
X8.3898Y-2.4685
X8.3898Y-3.0669
X8.437Y-2.7205
X8.5394Y-3.9685
X8.689Y-2.7677
X8.8898Y-2.7677
X9.0906Y-2.7717
X9.2913Y-2.7717
X9.3465Y-3.6772
X9.454Y-3.114
X9.454Y-3.228
X9.468Y-2.352
X9.4685Y-2.3937
X9.4685Y-2.4409
X9.478Y-3.732
X9.478Y-3.788
X9.5039Y-3.1142
X9.5039Y-3.2283
X9.5118Y-2.3937
X9.5118Y-2.4409
X9.512Y-2.352
X9.5276Y-3.7323
X9.5276Y-3.7874
X9.5748Y-3.7323
X9.5748Y-3.7874
X9.59Y-2.692
X9.592Y-2.964
X9.592Y-3.028
X9.598Y-3.598
X9.598Y-3.634
X9.636Y-2.902
X9.636Y-2.964
X9.6496Y-2.1654
X9.6496Y-3.5984
X9.6496Y-3.6339
X9.6969Y-3.5984
X9.6969Y-3.6339
X9.7362Y-3.3858
X9.7402Y-3.4685
X9.7441Y-3.1181
X9.748Y-2.1654
X10.0945Y-3.5669
T2
X1.57Y-2.73
X1.57Y-3.03
X1.5709Y-3.1614
X1.5709Y-3.3583
X1.8268Y-2.4079
X1.8268Y-3.0079
X1.8307Y-3.3134
X1.8307Y-3.9134
X1.9268Y-2.4079
X1.9268Y-3.0079
X1.9307Y-3.3134
X1.9307Y-3.9134
X2.0268Y-2.4079
X2.0268Y-3.0079
X2.0307Y-3.3134
X2.0307Y-3.9134
X2.1268Y-2.4079
X2.1268Y-3.0079
X2.1307Y-3.3134
X2.1307Y-3.9134
X2.2268Y-2.4079
X2.2268Y-3.0079
X2.2307Y-3.3134
X2.2307Y-3.9134
X2.325Y-3.1614
X2.3268Y-2.4079
X2.3268Y-3.0079
X2.3307Y-3.3134
X2.3307Y-3.9134
X2.4268Y-2.4079
X2.4268Y-3.0079
X2.4307Y-3.3134
X2.4307Y-3.9134
X2.5268Y-2.4079
X2.5268Y-3.0079
X2.5307Y-3.3134
X2.5307Y-3.9134
X2.625Y-3.1614
X2.6268Y-2.4079
X2.6268Y-3.0079
X2.6307Y-3.3134
X2.6307Y-3.9134
X2.7268Y-2.4079
X2.7268Y-3.0079
X2.7307Y-3.3134
X2.7307Y-3.9134
X2.8268Y-2.4079
X2.8268Y-3.0079
X2.8307Y-3.3134
X2.8307Y-3.9134
X2.878Y-3.1654
X2.9268Y-2.4079
X2.9268Y-3.0079
X2.9307Y-3.3134
X2.9307Y-3.9134
X3.0268Y-2.4079
X3.0268Y-3.0079
X3.0307Y-3.3134
X3.0307Y-3.9134
X3.1268Y-2.4079
X3.1268Y-3.0079
X3.1307Y-3.3134
X3.1307Y-3.9134
X3.178Y-3.1654
X3.2268Y-2.4079
X3.2268Y-3.0079
X3.2307Y-3.3134
X3.2307Y-3.9134
X3.3268Y-2.4079
X3.3268Y-3.0079
X3.3307Y-3.3134
X3.3307Y-3.9134
X3.4268Y-2.4079
X3.4268Y-3.0079
X3.4307Y-3.3134
X3.4307Y-3.9134
X3.5268Y-2.4079
X3.5268Y-3.0079
X3.5307Y-3.3134
X3.5307Y-3.9134
X3.6268Y-2.4079
X3.6268Y-3.0079
X3.6307Y-3.3134
X3.6307Y-3.9134
X3.7268Y-2.4079
X3.7268Y-3.0079
X3.7307Y-3.3134
X3.7307Y-3.9134
X3.9252Y-2.5591
X3.9252Y-2.7559
X4.1276Y-2.315
X4.1276Y-2.915
X4.1276Y-2.6147
X4.1378Y-3.215
X4.1378Y-3.815
X4.2276Y-2.315
X4.2276Y-2.915
X4.2276Y-2.6147
X4.2378Y-3.215
X4.2378Y-3.815
X4.3276Y-2.315
X4.3276Y-2.915
X4.3276Y-2.6147
X4.3378Y-3.215
X4.3378Y-3.815
X4.4276Y-2.315
X4.4276Y-2.915
X4.4276Y-2.6147
X4.4378Y-3.215
X4.4378Y-3.815
X4.4882Y-4.1654
X4.4882Y-4.3622
X4.5276Y-2.315
X4.5276Y-2.915
X4.5276Y-2.6147
X4.5378Y-3.215
X4.5378Y-3.815
X4.6276Y-2.315
X4.6276Y-2.915
X4.6276Y-2.6147
X4.6299Y-4.1134
X4.6299Y-4.4134
X4.6378Y-3.215
X4.6378Y-3.815
X4.7276Y-2.315
X4.7276Y-2.915
X4.7276Y-2.6147
X4.7299Y-4.1134
X4.7299Y-4.4134
X4.7378Y-3.215
X4.7378Y-3.815
X4.8276Y-2.315
X4.8276Y-2.915
X4.8276Y-2.6147
X4.8299Y-4.1134
X4.8299Y-4.4134
X4.8378Y-3.215
X4.8378Y-3.815
X4.9276Y-2.315
X4.9276Y-2.915
X4.9276Y-2.6147
X4.9299Y-4.1134
X4.9299Y-4.4134
X4.9378Y-3.215
X4.9378Y-3.815
X5.0276Y-2.315
X5.0276Y-2.915
X5.0276Y-2.6147
X5.0378Y-3.215
X5.0378Y-3.815
X5.1276Y-2.315
X5.1276Y-2.915
X5.1276Y-2.6147
X5.1378Y-3.215
X5.1378Y-3.815
X5.2276Y-2.315
X5.2276Y-2.915
X5.2276Y-2.6147
X5.2362Y-4.1134
X5.2362Y-4.4134
X5.2378Y-3.215
X5.2378Y-3.815
X5.3276Y-2.315
X5.3276Y-2.915
X5.3276Y-2.6147
X5.3378Y-3.215
X5.3378Y-3.815
X5.4276Y-2.315
X5.4276Y-2.915
X5.4276Y-2.6147
X5.4378Y-3.215
X5.4378Y-3.815
X5.5362Y-4.1134
X5.5362Y-4.4134
X5.6339Y-2.3661
X5.6339Y-2.563
X5.6339Y-2.9724
X5.6339Y-3.1693
X5.8362Y-4.1134
X5.8362Y-4.4134
X6.0315Y-2.3701
X6.0315Y-2.5669
X6.0315Y-2.9646
X6.0315Y-3.1614
X6.0866Y-3.5709
X6.0866Y-3.7677
X6.0906Y-4.1654
X6.0906Y-4.3622
X6.2402Y-2.3142
X6.2402Y-2.6142
X6.2402Y-2.9165
X6.2402Y-3.2165
X6.3307Y-4.1134
X6.3307Y-4.4134
X6.3386Y-3.515
X6.3386Y-3.815
X6.3402Y-2.3142
X6.3402Y-2.6142
X6.3402Y-2.9165
X6.3402Y-3.2165
X6.4307Y-4.1134
X6.4307Y-4.4134
X6.4386Y-3.515
X6.4386Y-3.815
X6.4402Y-2.3142
X6.4402Y-2.6142
X6.4402Y-2.9165
X6.4402Y-3.2165
X6.5307Y-4.1134
X6.5307Y-4.4134
X6.5386Y-3.515
X6.5386Y-3.815
X6.5402Y-2.3142
X6.5402Y-2.6142
X6.5402Y-2.9165
X6.5402Y-3.2165
X6.6307Y-4.1134
X6.6307Y-4.4134
X6.6386Y-3.515
X6.6386Y-3.815
X6.6402Y-2.3142
X6.6402Y-2.6142
X6.6402Y-2.9165
X6.6402Y-3.2165
X6.7307Y-4.1134
X6.7307Y-4.4134
X6.7386Y-3.515
X6.7386Y-3.815
X6.7402Y-2.3142
X6.7402Y-2.6142
X6.7402Y-2.9165
X6.7402Y-3.2165
X6.8307Y-4.1134
X6.8307Y-4.4134
X6.8386Y-3.515
X6.8386Y-3.815
X6.8402Y-2.3142
X6.8402Y-2.6142
X6.8402Y-2.9165
X6.8402Y-3.2165
X6.9307Y-4.1134
X6.9307Y-4.4134
X6.9386Y-3.515
X6.9386Y-3.815
X6.9402Y-2.3142
X6.9402Y-2.6142
X6.9402Y-2.9165
X6.9402Y-3.2165
X7.1339Y-4.1693
X7.1339Y-4.3661
X7.1378Y-2.3661
X7.1378Y-2.563
X7.1378Y-2.9646
X7.1378Y-3.1614
X7.1378Y-3.5709
X7.1378Y-3.7677
X7.3386Y-4.1134
X7.3386Y-4.4134
X7.3425Y-2.3142
X7.3425Y-2.6142
X7.3425Y-2.9165
X7.3425Y-3.2165
X7.3425Y-3.515
X7.3425Y-3.815
X7.4386Y-4.1134
X7.4386Y-4.4134
X7.4425Y-2.3142
X7.4425Y-2.6142
X7.4425Y-2.9165
X7.4425Y-3.2165
X7.4425Y-3.515
X7.4425Y-3.815
X7.5386Y-4.1134
X7.5386Y-4.4134
X7.5425Y-2.3142
X7.5425Y-2.6142
X7.5425Y-2.9165
X7.5425Y-3.2165
X7.5425Y-3.515
X7.5425Y-3.815
X7.6386Y-4.1134
X7.6386Y-4.4134
X7.6425Y-2.3142
X7.6425Y-2.6142
X7.6425Y-2.9165
X7.6425Y-3.2165
X7.6425Y-3.515
X7.6425Y-3.815
X7.7386Y-4.1134
X7.7386Y-4.4134
X7.7425Y-2.3142
X7.7425Y-2.6142
X7.7425Y-2.9165
X7.7425Y-3.2165
X7.7425Y-3.515
X7.7425Y-3.815
X7.8386Y-4.1134
X7.8386Y-4.4134
X7.8425Y-2.3142
X7.8425Y-2.6142
X7.8425Y-2.9165
X7.8425Y-3.2165
X7.8425Y-3.515
X7.8425Y-3.815
X7.9386Y-4.1134
X7.9386Y-4.4134
X7.9425Y-2.3142
X7.9425Y-2.6142
X7.9425Y-2.9165
X7.9425Y-3.2165
X7.9425Y-3.515
X7.9425Y-3.815
X8.0386Y-4.1134
X8.0386Y-4.4134
X8.2402Y-2.374
X8.2402Y-2.5709
X8.2441Y-2.9724
X8.2441Y-3.1693
X8.2441Y-3.5709
X8.2441Y-3.7677
X8.2441Y-4.1732
X8.2441Y-4.3701
X8.437Y-4.1173
X8.437Y-4.4173
X8.4409Y-2.9165
X8.4409Y-3.2165
X8.4409Y-3.515
X8.4409Y-3.815
X8.4449Y-2.3181
X8.4449Y-2.6181
X8.537Y-4.1173
X8.537Y-4.4173
X8.5409Y-2.9165
X8.5409Y-3.2165
X8.5409Y-3.515
X8.5409Y-3.815
X8.5449Y-2.3181
X8.5449Y-2.6181
X8.637Y-4.1173
X8.637Y-4.4173
X8.6409Y-2.9165
X8.6409Y-3.2165
X8.6409Y-3.515
X8.6409Y-3.815
X8.6449Y-2.3181
X8.6449Y-2.6181
X8.737Y-4.1173
X8.737Y-4.4173
X8.7409Y-2.9165
X8.7409Y-3.2165
X8.7409Y-3.515
X8.7409Y-3.815
X8.7449Y-2.3181
X8.7449Y-2.6181
X8.837Y-4.1173
X8.837Y-4.4173
X8.8409Y-2.9165
X8.8409Y-3.2165
X8.8409Y-3.515
X8.8409Y-3.815
X8.8449Y-2.3181
X8.8449Y-2.6181
X8.937Y-4.1173
X8.937Y-4.4173
X8.9409Y-2.9165
X8.9409Y-3.2165
X8.9409Y-3.515
X8.9409Y-3.815
X8.9449Y-2.3181
X8.9449Y-2.6181
X9.037Y-4.1173
X9.037Y-4.4173
X9.0409Y-2.9165
X9.0409Y-3.2165
X9.0409Y-3.515
X9.0409Y-3.815
X9.0449Y-2.3181
X9.0449Y-2.6181
X9.137Y-4.1173
X9.137Y-4.4173
X9.1409Y-2.9165
X9.1409Y-3.2165
X9.1409Y-3.515
X9.1409Y-3.815
X9.1449Y-2.3181
X9.1449Y-2.6181
X9.237Y-4.1173
X9.237Y-4.4173
X9.2409Y-2.9165
X9.2409Y-3.2165
X9.2409Y-3.515
X9.2409Y-3.815
X9.2449Y-2.3181
X9.2449Y-2.6181
X9.337Y-4.1173
X9.337Y-4.4173
X9.3409Y-2.9165
X9.3409Y-3.2165
X9.3409Y-3.515
X9.3409Y-3.815
X9.3449Y-2.3181
X9.3449Y-2.6181
X9.4914Y-2.7835
X9.5899Y-2.7835
T3
X1.695Y-3.8098
X1.695Y-3.9098
X2.0548Y-3.16
X2.1548Y-3.16
X4.3348Y-2.16
X4.4348Y-2.16
X4.6448Y-2.16
X4.7448Y-2.16
X9.8528Y-2.8669
X9.8528Y-2.9669
X9.8528Y-3.0669
X9.8528Y-3.1669
X9.8528Y-3.2669
X9.8528Y-3.3669
X9.8528Y-3.4669
X9.8528Y-3.5669
X9.8528Y-3.6669
X9.8528Y-3.7669
X9.8528Y-3.8669
X9.8528Y-3.9669
X9.8528Y-4.0669
X9.9528Y-2.8669
X9.9528Y-2.9669
X9.9528Y-3.0669
X9.9528Y-3.1669
X9.9528Y-3.2669
X9.9528Y-3.3669
X9.9528Y-3.4669
X9.9528Y-3.5669
X9.9528Y-3.6669
X9.9528Y-3.7669
X9.9528Y-3.8669
X9.9528Y-3.9669
X9.9528Y-4.0669
T4
X1.5236Y-3.9252
M30
